<?xml version="1.0" standalone="no"?>
<!DOCTYPE svg PUBLIC "-//W3C//DTD SVG 20010904//EN"
 "http://www.w3.org/TR/2001/REC-SVG-20010904/DTD/svg10.dtd">
<svg version="1.0" xmlns="http://www.w3.org/2000/svg"
 width="225.000000pt" height="225.000000pt" viewBox="0 0 225.000000 225.000000"
 preserveAspectRatio="xMidYMid meet">

<g transform="translate(0.000000,225.000000) scale(0.100000,-0.100000)"
fill="#000000" stroke="none">
<path d="M943 2145 c-689 -125 -1058 -881 -734 -1502 248 -473 820 -679 1315
-473 386 161 636 536 636 956 0 444 -289 844 -710 983 -151 49 -354 64 -507
36z m389 -75 c288 -63 534 -259 663 -525 67 -138 86 -217 92 -380 6 -159 -9
-257 -58 -385 -51 -132 -113 -226 -223 -336 -194 -195 -411 -284 -688 -284
-264 0 -482 92 -674 284 -194 194 -284 409 -284 681 0 272 90 487 284 681 141
141 286 222 469 264 114 26 304 26 419 0z"/>
<path d="M1005 1620 c-48 -19 -69 -58 -73 -130 l-4 -70 -132 0 c-72 0 -136 -4
-142 -8 -25 -17 -34 -56 -34 -155 0 -89 3 -108 20 -130 19 -23 20 -40 20 -242
l0 -216 25 -24 24 -25 416 0 416 0 24 25 25 24 0 216 c0 202 1 219 20 242 17
22 20 41 20 133 0 93 -3 111 -21 134 -20 26 -22 26 -155 26 l-134 0 0 56 c0
71 -22 118 -65 138 -36 17 -213 22 -250 6z m247 -57 c14 -12 18 -31 18 -80 l0
-64 -147 3 -148 3 0 57 c1 89 13 98 148 98 89 0 114 -3 129 -17z m-486 -468
c56 -22 133 -43 222 -59 30 -5 32 -4 32 24 0 43 31 60 111 60 61 0 70 -3 88
-26 12 -15 21 -35 21 -45 0 -15 6 -18 33 -13 68 12 186 44 230 63 48 21 70 14
47 -14 -14 -17 -173 -70 -240 -80 -72 -10 -75 -13 -76 -47 -2 -45 -26 -58
-110 -58 -82 0 -104 13 -104 61 0 16 -6 31 -12 33 -7 2 -57 13 -112 24 -113
25 -206 63 -206 86 0 21 2 20 76 -9z"/>
<path d="M1067 1063 c-4 -3 -7 -30 -7 -60 l0 -53 65 0 65 0 0 60 0 60 -58 0
c-32 0 -62 -3 -65 -7z"/>
</g>
</svg>
